<svg width="50" height="50" viewBox="0 0 50 50" fill="none" xmlns="http://www.w3.org/2000/svg">
<path d="M49.4195 35.7739C47.4758 35.3821 46.0104 36.7861 44.1753 34.694C43.6958 34.1477 43.0031 34.4557 42.7834 35.121C41.2084 39.8962 37.932 37.5892 36.4307 34.2445C36.1399 33.5971 35.3164 33.6532 35.0136 34.2445C33.976 37.1933 31.9779 37.5565 29.019 35.334C28.549 34.8565 27.778 35.0171 27.6013 35.7687C26.3131 41.2505 21.8115 39.7445 20.4246 35.24C20.3549 35.0131 20.2046 34.903 20.0486 34.8833C19.7331 34.4245 19.0184 34.287 18.7721 34.9305C16.9981 39.5629 13.7052 38.8538 11.6557 34.9366C11.2858 34.2297 10.522 34.4748 10.2795 35.1456C8.55583 39.9113 3.53352 39.8018 3.62296 34.0731C3.63278 33.4386 2.81514 33.3141 2.67688 33.9245C1.05913 41.064 8.57918 42.3021 11.1841 37.0614C13.8748 40.6157 17.9096 41.3451 19.8339 36.5616C21.4755 41.8079 26.8383 42.8398 28.8316 37.6197C31.3628 39.5842 33.774 39.2756 35.6763 36.4846C37.9962 40.3324 42.13 41.7499 43.9651 37.0019C45.6492 38.3257 46.7665 37.3996 49.2032 37.6265C50.1126 37.7116 50.3204 35.9558 49.4195 35.7739Z" fill="#00B2A0"/>
<path d="M46.3746 43.4668C45.6122 44.922 45.3486 46.226 43.7155 46.9373C41.7052 47.8135 39.7043 45.7229 38.7136 44.0088C38.3718 43.4172 37.5428 43.3034 37.2235 44.0088C35.8242 47.1007 32.7251 46.3457 31.4027 43.3617C31.0776 42.6276 29.9781 42.7586 29.8431 43.5984C29.1 48.2241 25.7637 48.7137 23.5292 45.361C23.773 44.4583 22.5008 43.8438 22.154 44.7274C20.2783 49.5069 16.6163 48.973 14.4909 44.7077C14.122 43.9675 13.2956 44.2271 13.0573 44.9253C11.3299 49.9888 8.63952 47.5801 7.12978 44.0948C6.83574 43.4156 5.99714 43.6508 5.81987 44.2936C4.9948 47.2872 3.63553 47.8461 1.34557 48.6206C0.914332 48.7667 0.980943 49.6361 1.45518 49.5627C4.07898 49.1564 5.51203 48.6141 6.58443 46.3441C8.7876 50.3409 11.8633 51.1572 13.9272 46.9518C16.6033 50.8434 20.9022 51.287 23.0321 46.657C25.398 50.3957 29.3656 50.2117 30.9545 46.1376C33.0043 48.9464 35.9877 49.3411 38.0518 46.1977C41.1235 49.7856 47.4059 50.5887 47.6298 43.8626C47.6577 43.0605 46.7119 42.8228 46.3746 43.4668Z" fill="#00B2A0"/>
<path d="M14.1105 7.50507C13.5962 7.67895 13.3935 8.12751 13.4091 8.5804C9.76496 9.20593 7.40574 13.383 7.12417 17.5845C6.7391 23.3329 10.9422 26.7097 15.4993 26.2809C20.1588 25.8428 23.19 21.0025 23.053 15.8007C22.9161 10.605 18.6793 5.95773 14.1105 7.50507ZM14.8693 23.653C11.5247 23.9717 9.36105 21.3478 9.42501 17.5845C9.49215 13.6401 12.0937 11.0391 15.1094 9.99917C15.1646 9.98006 15.2044 9.94738 15.2493 9.9184C18.1892 10.4511 20.4125 11.7506 20.7249 15.8001C21.0491 20.0006 18.3943 23.3163 14.8693 23.653Z" fill="#00B2A0"/>
<path d="M9.86943 7.33132C9.32089 6.63796 8.71317 6.02877 8.09086 5.4276C7.47385 4.83135 6.81942 3.67771 5.94951 3.77205C5.48881 3.822 5.17673 4.16143 5.14462 4.70711C5.08358 5.74267 5.96251 6.25136 6.60181 6.77947C7.33267 7.3828 8.09192 7.92263 8.77023 8.60859C9.52284 9.37008 10.5528 8.19485 9.86943 7.33132Z" fill="#00B2A0"/>
<path d="M4.82731 10.4497C5.11975 10.4907 4.86127 10.4414 4.78405 10.4134C4.66542 10.3699 4.54919 10.3178 4.43322 10.266C4.30186 10.2077 4.17182 10.1448 4.04205 10.0819C4.03329 10.0776 4.02851 10.0755 4.01551 10.0687C3.89184 9.79276 3.67928 9.57048 3.40567 9.4709C2.91711 9.29239 2.17404 8.86602 1.64594 9.05871C1.34739 9.16784 1.03451 9.45486 0.976388 9.83653C0.976388 9.83653 0.976122 9.83808 0.976122 9.83869C0.920923 10.2003 0.944807 10.6708 1.22266 10.9223C1.37738 11.0617 1.55836 11.1604 1.74705 11.2454C1.59419 11.2448 1.71759 11.2532 1.85585 11.2905C1.95378 11.3296 2.05038 11.3697 2.15122 11.4008C2.39431 11.4958 2.63713 11.5923 2.87889 11.6906C3.01768 11.7477 3.16072 11.7526 3.29899 11.7236C3.79604 11.8771 4.34034 12.051 4.82757 12.0165C5.71341 11.9536 5.67546 10.569 4.82731 10.4497Z" fill="#00B2A0"/>
<path d="M3.30907 19.2588C2.93701 19.6211 2.50285 19.905 2.07983 20.1772C1.86116 20.3181 1.63506 20.4639 1.40073 20.5666C1.26034 20.628 1.03689 20.5765 1.34579 20.6421C1.1924 20.6098 1.04698 20.6064 0.894383 20.5873C-0.391911 20.426 -0.274878 23.1242 1.14304 22.7222C1.66531 22.5742 2.19899 21.9952 2.64297 21.6244C3.15807 21.1943 3.67237 20.7241 4.09698 20.1741C4.58236 19.5458 3.85601 18.7258 3.30907 19.2588Z" fill="#00B2A0"/>
<path d="M6.58669 24.6062C6.15094 25.3831 5.75367 26.1883 5.33915 26.9804C4.88986 27.8383 4.12875 28.4781 4.02897 29.5047C3.96528 30.1601 4.58308 30.4847 5.03927 30.3987C5.97208 30.223 6.4272 28.8437 6.76821 27.9503C7.12011 27.0285 7.33639 26.0616 7.61822 25.1109C7.83477 24.3787 6.92187 24.0081 6.58669 24.6062Z" fill="#00B2A0"/>
<path d="M15.4027 27.3986C15.3108 26.8502 14.5808 26.8764 14.4738 27.3986C14.1931 28.7715 13.8643 30.1326 13.5885 31.5067C13.5219 31.8384 13.5792 32.2222 13.8056 32.4609C13.7685 32.4032 13.7727 32.4146 13.8181 32.4945C14.088 33.0068 14.6551 32.9483 14.9348 32.4945C14.6792 32.9088 15.1158 32.2938 15.1314 32.2623C15.2344 32.0579 15.2432 31.8433 15.2541 31.614C15.2769 31.1392 15.3249 30.6656 15.3639 30.1924C15.4406 29.2697 15.5566 28.3171 15.4027 27.3986Z" fill="#00B2A0"/>
<path d="M25.0978 28.2096C24.4304 27.0973 23.3705 26.3833 22.7638 25.2346C22.3485 24.4478 21.3974 25.1332 21.7182 25.9446C21.9964 26.6478 22.4212 27.2317 22.8599 27.8073C23.0693 28.082 23.2837 28.3502 23.4679 28.6487C23.7192 29.0559 23.8224 29.5134 24.3123 29.5927C24.5942 29.6383 24.9158 29.5735 25.058 29.2397C25.0713 29.2088 25.0846 29.178 25.0976 29.1469C25.2191 28.8626 25.2658 28.4899 25.0978 28.2096Z" fill="#00B2A0"/>
<path d="M28.981 19.9104C27.8576 19.9792 26.734 20.0452 25.6107 20.1102C24.5998 20.1688 24.5998 21.8737 25.6107 21.9325C26.7343 21.9979 27.8576 22.0639 28.981 22.132C30.2145 22.2075 30.2145 19.8355 28.981 19.9104Z" fill="#00B2A0"/>
<path d="M28.9813 7.09895C27.9623 7.07429 27.1386 8.49614 26.5279 9.32207C25.8716 10.2093 25.295 11.1709 24.6259 12.0465C24.1148 12.7155 24.9027 13.6419 25.4725 13.0299C26.1471 12.3048 26.7596 11.5079 27.4071 10.751C27.7728 10.3237 28.1512 9.89334 28.5663 9.53047C29.0766 9.08499 29.4776 8.9404 29.7045 8.20141C29.873 7.65296 29.4394 7.11005 28.9813 7.09895Z" fill="#00B2A0"/>
<path d="M24.085 1.2963C23.4818 1.74579 23.0795 2.47583 22.6649 3.14329C22.1817 3.92143 21.7223 4.70327 21.1634 5.41296C20.5305 6.21669 21.5151 7.3731 22.1947 6.611C22.7223 6.01907 23.1893 5.37381 23.6471 4.70912C24.1386 3.99573 24.7723 3.34245 25.1768 2.56431C25.5828 1.78371 24.7654 0.789458 24.085 1.2963Z" fill="#00B2A0"/>
<path d="M16.5488 0.226597C16.2548 -0.0755323 15.87 -0.0755323 15.5759 0.226597C14.9987 0.819757 15.2649 1.85532 15.3129 2.64486C15.3681 3.55064 15.4273 4.45548 15.4982 5.36002C15.5642 6.20352 16.5605 6.20352 16.6266 5.36002C16.6974 4.45517 16.7566 3.55094 16.8118 2.64486C16.8598 1.85563 17.126 0.819449 16.5488 0.226597Z" fill="#00B2A0"/>
</svg>
